<svg width="127" height="73" viewBox="0 0 127 73" fill="none" xmlns="http://www.w3.org/2000/svg">
<path d="M11.584 27.18C10.552 27.18 9.76 26.94 9.208 26.46C8.68 25.956 8.416 25.32 8.416 24.552C8.416 23.76 8.632 23.136 9.064 22.68C9.496 22.224 10.108 21.996 10.9 21.996C11.524 21.996 12.028 22.188 12.412 22.572C12.796 22.932 13.036 23.448 13.132 24.12C13.9 23.832 14.62 22.944 15.292 21.456L10.144 2.412C8.44 3.06 7.12 4.068 6.184 5.436C5.248 6.78 4.78 8.436 4.78 10.404C4.78 11.292 4.864 11.916 5.032 12.276C5.2 12.612 5.284 12.804 5.284 12.852C3.988 12.852 3.016 12.588 2.368 12.06C1.744 11.508 1.432 10.608 1.432 9.36C1.432 7.824 2.056 6.336 3.304 4.896C4.576 3.432 6.196 2.256 8.164 1.368C10.132 0.455998 12.1 -2.14577e-06 14.068 -2.14577e-06C14.404 -2.14577e-06 14.884 0.0239983 15.508 0.0719991L18.64 13.572L24.328 0.179998H26.704L17.704 21.456C17.008 23.064 16.192 24.42 15.256 25.524C14.344 26.628 13.12 27.18 11.584 27.18ZM36.624 27.216C35.472 27.216 34.536 26.856 33.816 26.136C33.12 25.416 32.772 24.336 32.772 22.896C32.772 22.296 32.868 21.516 33.06 20.556L33.24 19.656C32.544 20.424 31.836 20.952 31.116 21.24C30.396 21.528 29.664 21.672 28.92 21.672C27.768 21.672 26.832 21.312 26.112 20.592C25.416 19.872 25.068 18.792 25.068 17.352C25.068 16.752 25.164 15.972 25.356 15.012L26.616 9H31.8L30.396 15.696C30.324 16.056 30.288 16.392 30.288 16.704C30.288 17.688 30.648 18.18 31.368 18.18C32.064 18.18 32.664 17.892 33.168 17.316C33.696 16.716 34.056 15.948 34.248 15.012L35.508 9H40.692L38.1 21.24C38.004 21.6 37.956 21.984 37.956 22.392C37.956 22.872 38.064 23.22 38.28 23.436C38.52 23.628 38.904 23.724 39.432 23.724C40.104 23.724 40.68 23.436 41.16 22.86C41.664 22.284 42.06 21.516 42.348 20.556H43.86C42.972 23.148 41.868 24.912 40.548 25.848C39.252 26.76 37.944 27.216 36.624 27.216ZM45.9078 27.216C44.7558 27.216 43.8198 26.856 43.0998 26.136C42.4038 25.416 42.0557 24.336 42.0557 22.896C42.0557 22.296 42.1517 21.516 42.3438 20.556L44.7918 9H49.9758L47.3838 21.24C47.3118 21.6 47.2758 21.936 47.2758 22.248C47.2758 23.232 47.6358 23.724 48.3558 23.724C49.0278 23.724 49.6038 23.448 50.0838 22.896C50.5638 22.32 50.9478 21.54 51.2358 20.556L53.6838 9H58.8678L56.2758 21.24C56.1798 21.6 56.1318 21.984 56.1318 22.392C56.1318 22.872 56.2398 23.22 56.4558 23.436C56.6958 23.628 57.0798 23.724 57.6078 23.724C58.2798 23.724 58.8558 23.436 59.3358 22.86C59.8398 22.284 60.2358 21.516 60.5237 20.556H62.0358C61.1478 23.148 60.0438 24.912 58.7238 25.848C57.4278 26.76 56.1198 27.216 54.7998 27.216C53.7678 27.216 52.9398 26.928 52.3158 26.352C51.7158 25.776 51.3558 24.924 51.2358 23.796C50.4198 25.116 49.5558 26.016 48.6438 26.496C47.7558 26.976 46.8438 27.216 45.9078 27.216ZM91.8035 20.556C90.2915 24.996 88.0595 27.216 85.1075 27.216C83.7395 27.216 82.6835 26.856 81.9395 26.136C81.2195 25.392 80.8595 24.48 80.8595 23.4C80.8595 22.464 81.1115 20.868 81.6155 18.612L82.6595 13.932L76.1435 27H71.8955L70.9235 11.916C70.4915 12.42 70.1075 13.152 69.7715 14.112C69.4355 15.048 69.1115 16.32 68.7995 17.928C68.3435 20.28 67.9235 22.08 67.5395 23.328C67.1795 24.576 66.6635 25.536 65.9915 26.208C65.3435 26.88 64.4675 27.216 63.3635 27.216C62.0675 27.216 61.0475 26.82 60.3035 26.028C59.5355 25.212 59.1515 24.228 59.1515 23.076C59.1515 22.26 59.3435 21.612 59.7275 21.132C60.1115 20.628 60.6395 20.376 61.3115 20.376C61.8875 20.376 62.3555 20.556 62.7155 20.916C63.0755 21.276 63.2555 21.708 63.2555 22.212C63.2555 22.788 63.1115 23.232 62.8235 23.544C62.5355 23.832 62.1995 23.952 61.8155 23.904C61.8155 24.816 62.2835 25.272 63.2195 25.272C63.8915 25.272 64.4435 25.032 64.8755 24.552C65.3075 24.048 65.6795 23.232 65.9915 22.104C66.3275 20.976 66.6875 19.344 67.0715 17.208C67.5995 14.16 68.3915 12.036 69.4475 10.836C70.5275 9.612 71.9315 9 73.6595 9H75.2795L75.9635 22.824L82.7675 9H88.5995L86.6915 17.928C86.4515 18.96 86.2475 19.86 86.0795 20.628C85.9115 21.396 85.8275 21.924 85.8275 22.212C85.8275 23.22 86.3075 23.724 87.2675 23.724C87.9395 23.724 88.4795 23.496 88.8875 23.04C89.2955 22.584 89.7635 21.756 90.2915 20.556H91.8035ZM95.4449 27.216C93.6689 27.216 92.2889 26.76 91.3049 25.848C90.3209 24.912 89.8289 23.46 89.8289 21.492C89.8289 19.836 90.1529 18.012 90.8009 16.02C91.4729 14.028 92.5289 12.312 93.9689 10.872C95.4329 9.408 97.2809 8.676 99.5129 8.676C100.953 8.676 101.973 8.988 102.573 9.612C103.197 10.236 103.509 11.028 103.509 11.988C103.509 12.828 103.329 13.476 102.969 13.932C102.609 14.388 102.153 14.616 101.601 14.616C101.193 14.616 100.773 14.472 100.341 14.184C100.629 13.392 100.773 12.684 100.773 12.06C100.773 11.604 100.689 11.244 100.521 10.98C100.353 10.716 100.101 10.584 99.7649 10.584C99.0449 10.584 98.3249 11.172 97.6049 12.348C96.8849 13.524 96.2969 14.952 95.8409 16.632C95.3849 18.312 95.1569 19.824 95.1569 21.168C95.1569 22.344 95.3609 23.148 95.7689 23.58C96.1769 23.988 96.8369 24.192 97.7489 24.192C99.0449 24.192 100.149 23.892 101.061 23.292C101.997 22.692 103.017 21.78 104.121 20.556H105.345C102.681 24.996 99.3809 27.216 95.4449 27.216ZM106.777 27.216C105.481 27.216 104.485 26.832 103.789 26.064C103.093 25.272 102.745 24.3 102.745 23.148C102.745 22.284 102.949 21.588 103.357 21.06C103.741 20.532 104.281 20.268 104.977 20.268C105.529 20.268 105.973 20.448 106.309 20.808C106.669 21.144 106.849 21.588 106.849 22.14C106.849 22.716 106.705 23.148 106.417 23.436C106.153 23.724 105.817 23.844 105.409 23.796C105.433 24.108 105.553 24.384 105.769 24.624C105.985 24.84 106.333 24.948 106.813 24.948C107.581 24.948 108.169 24.516 108.577 23.652C109.009 22.788 109.441 21.372 109.873 19.404C108.817 19.188 107.977 18.732 107.353 18.036C106.753 17.34 106.453 16.404 106.453 15.228C106.453 13.38 107.197 11.88 108.685 10.728C110.173 9.576 112.585 9 115.921 9H121.393L119.485 17.928C119.245 18.96 119.041 19.86 118.873 20.628C118.705 21.396 118.621 21.924 118.621 22.212C118.621 23.22 119.101 23.724 120.061 23.724C120.517 23.724 120.925 23.616 121.285 23.4C121.021 25.68 119.893 26.952 117.901 27.216C116.533 27.216 115.477 26.856 114.733 26.136C114.013 25.392 113.653 24.48 113.653 23.4C113.653 22.704 113.869 21.36 114.301 19.368C113.653 19.512 112.981 19.584 112.285 19.584C111.853 21.432 111.433 22.884 111.025 23.94C110.617 24.996 110.077 25.812 109.405 26.388C108.733 26.94 107.857 27.216 106.777 27.216ZM114.049 17.892C114.313 17.892 114.505 17.868 114.625 17.82L116.137 10.944H115.273C113.881 10.944 112.813 11.328 112.069 12.096C111.349 12.84 110.989 13.848 110.989 15.12C110.989 16.968 111.853 17.892 113.581 17.892H114.049ZM6.472 72.144C4.48 72.144 2.98 71.556 1.972 70.38C0.988 69.204 0.496 67.632 0.496 65.664C0.496 63.744 1.012 61.104 2.044 57.744C3.076 54.36 4.444 51.384 6.148 48.816C7.852 46.248 9.688 44.964 11.656 44.964C14.296 44.964 15.616 46.608 15.616 49.896C15.616 52.224 14.632 55.104 12.664 58.536C13.168 58.776 13.624 59.136 14.032 59.616C15.088 59.616 16.228 59.388 17.452 58.932C18.7 58.476 19.756 57.948 20.62 57.348L20.944 58.32C20.296 59.016 19.432 59.628 18.352 60.156C17.296 60.66 16.132 61.02 14.86 61.236C14.98 61.692 15.04 62.292 15.04 63.036C15.04 64.644 14.692 66.144 13.996 67.536C13.3 68.928 12.304 70.044 11.008 70.884C9.712 71.724 8.2 72.144 6.472 72.144ZM8.056 68.904C8.8 68.904 9.448 68.652 10 68.148C10.576 67.644 11.008 67.008 11.296 66.24C11.608 65.472 11.764 64.68 11.764 63.864C11.764 62.976 11.656 62.316 11.44 61.884C11.272 61.956 11.092 62.016 10.9 62.064C10.708 62.088 10.456 62.1 10.144 62.1C9.568 62.1 9.112 61.944 8.776 61.632C8.44 61.32 8.272 60.888 8.272 60.336C8.272 59.616 8.488 59.088 8.92 58.752C9.376 58.416 10 58.224 10.792 58.176C11.488 56.904 12.076 55.5 12.556 53.964C13.06 52.404 13.312 51 13.312 49.752C13.312 49.032 13.216 48.528 13.024 48.24C12.856 47.928 12.556 47.772 12.124 47.772C11.188 47.772 10.228 48.936 9.244 51.264C8.284 53.592 7.48 56.244 6.832 59.22C6.184 62.196 5.86 64.38 5.86 65.772C5.86 67.86 6.592 68.904 8.056 68.904ZM48.4559 65.556C46.9439 69.996 44.7119 72.216 41.7599 72.216C40.3919 72.216 39.3359 71.856 38.5919 71.136C37.8719 70.392 37.5119 69.48 37.5119 68.4C37.5119 67.464 37.7639 65.868 38.2679 63.612L39.3119 58.932L32.7959 72H28.5479L27.5759 56.916C27.1439 57.42 26.7599 58.152 26.4239 59.112C26.0879 60.048 25.7639 61.32 25.4519 62.928C24.9959 65.28 24.5759 67.08 24.1919 68.328C23.8319 69.576 23.3159 70.536 22.6439 71.208C21.9959 71.88 21.1199 72.216 20.0159 72.216C18.7199 72.216 17.6999 71.82 16.9559 71.028C16.1879 70.212 15.8039 69.228 15.8039 68.076C15.8039 67.26 15.9959 66.612 16.3799 66.132C16.7639 65.628 17.2919 65.376 17.9639 65.376C18.5399 65.376 19.0079 65.556 19.3679 65.916C19.7279 66.276 19.9079 66.708 19.9079 67.212C19.9079 67.788 19.7639 68.232 19.4759 68.544C19.1879 68.832 18.8519 68.952 18.4679 68.904C18.4679 69.816 18.9359 70.272 19.8719 70.272C20.5439 70.272 21.0959 70.032 21.5279 69.552C21.9599 69.048 22.3319 68.232 22.6439 67.104C22.9799 65.976 23.3399 64.344 23.7239 62.208C24.2519 59.16 25.0439 57.036 26.0999 55.836C27.1799 54.612 28.5839 54 30.3119 54H31.9319L32.6159 67.824L39.4199 54H45.2519L43.3439 62.928C43.1039 63.96 42.8999 64.86 42.7319 65.628C42.5639 66.396 42.4799 66.924 42.4799 67.212C42.4799 68.22 42.9599 68.724 43.9199 68.724C44.5919 68.724 45.1319 68.496 45.5399 68.04C45.9479 67.584 46.4159 66.756 46.9439 65.556H48.4559ZM52.0972 72.216C50.3212 72.216 48.9412 71.76 47.9572 70.848C46.9732 69.912 46.4812 68.46 46.4812 66.492C46.4812 64.836 46.8052 63.012 47.4532 61.02C48.1012 59.028 49.1572 57.312 50.6212 55.872C52.0852 54.408 53.9452 53.676 56.2012 53.676C58.8412 53.676 60.1612 54.828 60.1612 57.132C60.1612 58.476 59.7772 59.712 59.0092 60.84C58.2412 61.968 57.2212 62.88 55.9492 63.576C54.6772 64.248 53.3212 64.632 51.8812 64.728C51.8332 65.448 51.8092 65.928 51.8092 66.168C51.8092 67.344 52.0132 68.148 52.4212 68.58C52.8292 68.988 53.4892 69.192 54.4012 69.192C55.6972 69.192 56.8012 68.892 57.7132 68.292C58.6492 67.692 59.6692 66.78 60.7732 65.556H61.9972C59.3332 69.996 56.0332 72.216 52.0972 72.216ZM52.1692 63C53.0572 62.952 53.8972 62.64 54.6892 62.064C55.5052 61.488 56.1532 60.756 56.6332 59.868C57.1372 58.98 57.3892 58.044 57.3892 57.06C57.3892 56.076 57.0892 55.584 56.4892 55.584C55.6252 55.584 54.7732 56.34 53.9332 57.852C53.1172 59.364 52.5292 61.08 52.1692 63ZM65.9136 72.216C64.1376 72.216 62.7576 71.76 61.7736 70.848C60.7896 69.912 60.2976 68.46 60.2976 66.492C60.2976 64.836 60.6216 63.012 61.2696 61.02C61.9416 59.028 62.9976 57.312 64.4376 55.872C65.9016 54.408 67.7496 53.676 69.9816 53.676C71.4216 53.676 72.4416 53.988 73.0416 54.612C73.6656 55.236 73.9776 56.028 73.9776 56.988C73.9776 57.828 73.7976 58.476 73.4376 58.932C73.0776 59.388 72.6216 59.616 72.0696 59.616C71.6616 59.616 71.2416 59.472 70.8096 59.184C71.0976 58.392 71.2416 57.684 71.2416 57.06C71.2416 56.604 71.1576 56.244 70.9896 55.98C70.8216 55.716 70.5696 55.584 70.2336 55.584C69.5136 55.584 68.7936 56.172 68.0736 57.348C67.3536 58.524 66.7656 59.952 66.3096 61.632C65.8536 63.312 65.6256 64.824 65.6256 66.168C65.6256 67.344 65.8296 68.148 66.2376 68.58C66.6456 68.988 67.3056 69.192 68.2176 69.192C69.5136 69.192 70.6176 68.892 71.5296 68.292C72.4656 67.692 73.4856 66.78 74.5896 65.556H75.8136C73.1496 69.996 69.8496 72.216 65.9136 72.216ZM96.47 72.216C95.006 72.216 93.926 71.832 93.23 71.064C92.558 70.272 92.222 69.3 92.222 68.148C92.222 67.644 92.282 67.08 92.402 66.456C92.522 65.808 92.642 65.184 92.762 64.584C92.906 63.984 93.002 63.6 93.05 63.432C93.242 62.592 93.422 61.764 93.59 60.948C93.758 60.132 93.842 59.472 93.842 58.968C93.842 57.744 93.41 57.132 92.546 57.132C91.922 57.132 91.37 57.444 90.89 58.068C90.41 58.668 90.026 59.46 89.738 60.444L87.29 72H82.106L84.734 59.58C84.806 59.292 84.842 58.992 84.842 58.68C84.842 57.624 84.482 57.096 83.762 57.096C83.09 57.096 82.502 57.408 81.998 58.032C81.518 58.632 81.134 59.436 80.846 60.444L78.398 72H73.214L77.03 54H82.214L81.818 55.872C83.042 54.504 84.506 53.82 86.21 53.82C88.322 53.82 89.558 54.852 89.918 56.916C91.238 54.876 92.906 53.856 94.922 53.856C96.146 53.856 97.118 54.192 97.838 54.864C98.558 55.536 98.918 56.556 98.918 57.924C98.918 58.62 98.834 59.4 98.666 60.264C98.498 61.104 98.258 62.136 97.946 63.36C97.754 64.104 97.574 64.836 97.406 65.556C97.262 66.252 97.19 66.804 97.19 67.212C97.19 67.692 97.298 68.064 97.514 68.328C97.73 68.592 98.102 68.724 98.63 68.724C99.35 68.724 99.926 68.472 100.358 67.968C100.79 67.44 101.222 66.636 101.654 65.556H103.166C102.278 68.196 101.246 69.972 100.07 70.884C98.918 71.772 97.718 72.216 96.47 72.216ZM106.728 72.216C104.976 72.216 103.608 71.76 102.624 70.848C101.64 69.912 101.148 68.46 101.148 66.492C101.148 64.836 101.472 63.012 102.12 61.02C102.768 59.028 103.824 57.312 105.288 55.872C106.752 54.408 108.612 53.676 110.868 53.676C113.508 53.676 114.828 54.828 114.828 57.132C114.828 58.476 114.444 59.712 113.676 60.84C112.908 61.968 111.888 62.88 110.616 63.576C109.344 64.248 107.988 64.632 106.548 64.728C106.5 65.256 106.476 65.616 106.476 65.808C106.476 67.8 107.22 68.796 108.708 68.796C109.38 68.796 110.1 68.616 110.868 68.256C111.636 67.896 112.332 67.44 112.956 66.888C112.308 70.44 110.232 72.216 106.728 72.216ZM106.8 63C107.712 62.976 108.564 62.676 109.356 62.1C110.172 61.524 110.82 60.792 111.3 59.904C111.804 58.992 112.056 58.044 112.056 57.06C112.056 56.076 111.756 55.584 111.156 55.584C110.316 55.584 109.476 56.352 108.636 57.888C107.82 59.4 107.208 61.104 106.8 63ZM121.1 45.684L126.644 44.928L121.424 63.684H118.364L121.1 45.684ZM118.868 72.216C118.076 72.216 117.392 71.94 116.816 71.388C116.264 70.812 115.988 70.128 115.988 69.336C115.988 68.544 116.264 67.872 116.816 67.32C117.392 66.768 118.076 66.492 118.868 66.492C119.66 66.492 120.332 66.768 120.884 67.32C121.436 67.872 121.712 68.544 121.712 69.336C121.712 70.128 121.436 70.812 120.884 71.388C120.332 71.94 119.66 72.216 118.868 72.216Z" fill="#646464"/>
</svg>
